<svg width="579" height="499" viewBox="0 0 579 499" fill="none" xmlns="http://www.w3.org/2000/svg" class="h-10 w-auto text-[#F5F5F5]"><path d="M2.5 391C0.499998 386 1.5 380 5 375L207.5 68C218 54 231 50.5 249 50C249 50 249 50 249.5 50C254 49.5 259.5 50 265 50C266 50 267 50 268 50C270 50 271.5 50 274 50C281 50 289 50 298.5 50C298.5 50 316 49.5 322.5 68L422.5 375C424 380 423 386 419.5 391C416 396 411 399 405.5 399H325.5C320 399 315.5 396 314 390.5L305 361.5H136L129.5 372L116 390.5C112.5 396 106 399 100 399H15.5C9.5 399 4.5 396 2.5 391ZM250.5 187L191 278H279.5L250.5 187Z" fill="currentColor"></path><path d="M425.568 36.2571C431.44 36.2571 437.09 37.2421 442.517 39.212C447.98 41.1819 452.85 44.3227 457.124 48.6342C461.435 52.9458 464.836 58.6697 467.327 65.8061C469.854 72.9053 471.136 81.6213 471.174 91.9542C471.174 101.655 470.077 110.315 467.884 117.935C465.728 125.517 462.625 131.966 458.574 137.281C454.522 142.596 449.634 146.648 443.911 149.435C438.187 152.186 431.794 153.561 424.732 153.561C417.112 153.561 410.384 152.093 404.549 149.157C398.714 146.183 394.012 142.15 390.444 137.058C386.913 131.929 384.775 126.168 384.032 119.775H407.838C408.768 123.938 410.719 127.171 413.692 129.476C416.666 131.743 420.346 132.877 424.732 132.877C432.165 132.877 437.815 129.643 441.68 123.176C445.546 116.671 447.497 107.769 447.534 96.4702H446.754C445.044 99.8153 442.74 102.696 439.841 105.112C436.941 107.491 433.615 109.33 429.861 110.631C426.144 111.932 422.185 112.583 417.985 112.583C411.258 112.583 405.255 111.003 399.977 107.844C394.699 104.684 390.536 100.336 387.489 94.7976C384.441 89.2595 382.917 82.9408 382.917 75.8416C382.88 68.1849 384.645 61.3645 388.213 55.3803C391.782 49.3962 396.762 44.7129 403.155 41.3306C409.585 37.9111 417.056 36.2199 425.568 36.2571ZM425.735 55.2131C421.981 55.2131 418.636 56.1051 415.7 57.8892C412.8 59.6733 410.496 62.0707 408.786 65.0813C407.114 68.092 406.296 71.4557 406.333 75.1726C406.333 78.9266 407.151 82.3089 408.786 85.3196C410.459 88.2931 412.726 90.6719 415.588 92.456C418.487 94.2029 421.795 95.0763 425.512 95.0763C428.3 95.0763 430.883 94.556 433.262 93.5153C435.641 92.4745 437.703 91.0436 439.45 89.2223C441.234 87.3639 442.628 85.2267 443.632 82.8107C444.635 80.3948 445.137 77.8301 445.137 75.1168C445.1 71.5115 444.245 68.2035 442.572 65.1928C440.9 62.1822 438.595 59.7662 435.659 57.945C432.723 56.1237 429.415 55.2131 425.735 55.2131ZM524.819 154.509C515.23 154.472 506.978 152.112 500.065 147.428C493.189 142.745 487.892 135.962 484.175 127.078C480.496 118.195 478.674 107.509 478.711 95.0206C478.711 82.5691 480.551 71.9575 484.231 63.1857C487.948 54.4139 493.244 47.7422 500.121 43.1705C507.034 38.5616 515.267 36.2571 524.819 36.2571C534.371 36.2571 542.586 38.5616 549.462 43.1705C556.375 47.7794 561.69 54.4697 565.407 63.2415C569.124 71.9761 570.964 82.5691 570.927 95.0206C570.927 107.546 569.068 118.251 565.351 127.134C561.672 136.018 556.394 142.801 549.518 147.484C542.641 152.167 534.409 154.509 524.819 154.509ZM524.819 134.494C531.361 134.494 536.583 131.204 540.486 124.625C544.388 118.047 546.321 108.178 546.284 95.0206C546.284 86.3603 545.392 79.1496 543.608 73.3885C541.861 67.6274 539.371 63.2972 536.137 60.3981C532.94 57.4989 529.168 56.0494 524.819 56.0494C518.315 56.0494 513.111 59.3016 509.208 65.8061C505.306 72.3106 503.336 82.0488 503.298 95.0206C503.298 103.792 504.172 111.115 505.919 116.987C507.703 122.823 510.212 127.209 513.445 130.145C516.679 133.044 520.47 134.494 524.819 134.494Z" fill="currentColor"></path></svg>
